<?xml version="1.0" standalone="no"?><!DOCTYPE svg PUBLIC "-//W3C//DTD SVG 1.1//EN" "http://www.w3.org/Graphics/SVG/1.1/DTD/svg11.dtd"><svg t="1708493899680" class="icon" viewBox="0 0 1024 1024" version="1.1" xmlns="http://www.w3.org/2000/svg" p-id="1542" xmlns:xlink="http://www.w3.org/1999/xlink" width="128" height="128"><path d="M874 193.286c44.112 0 80 35.888 80 80v492.283c0 44.111-35.888 80-80 80H150c-44.112 0-80-35.889-80-80V273.286c0-44.112 35.888-80 80-80h724m0-70H150c-82.843 0-150 67.157-150 150v492.283c0 82.843 67.157 150 150 150h724c82.843 0 150-67.157 150-150V273.286c0-82.843-67.157-150-150-150z" fill="#1296db" p-id="1543"></path><path d="M715.5 348.311c43.05 0 78.074 35.024 78.074 78.074s-35.024 78.074-78.074 78.074-78.074-35.024-78.074-78.074 35.024-78.074 78.074-78.074m0-70c-81.779 0-148.074 66.295-148.074 148.074 0 81.779 66.295 148.074 148.074 148.074s148.074-66.295 148.074-148.074c0-81.779-66.295-148.074-148.074-148.074z" fill="#1296db" p-id="1544"></path><path d="M863.574 719.354c-19.33 0-35-15.67-35-35 0-62.349-50.725-113.073-113.074-113.073s-113.074 50.725-113.074 113.073c0 19.33-15.67 35-35 35s-35-15.67-35-35c0-100.947 82.127-183.073 183.074-183.073s183.074 82.126 183.074 183.073c0 19.331-15.67 35-35 35zM457.5 405.5h-312c-19.33 0-35-15.67-35-35s15.67-35 35-35h312c19.33 0 35 15.67 35 35s-15.67 35-35 35zM457.5 556h-312c-19.33 0-35-15.67-35-35s15.67-35 35-35h312c19.33 0 35 15.67 35 35s-15.67 35-35 35zM364.5 706.5h-219c-19.33 0-35-15.67-35-35s15.67-35 35-35h219c19.33 0 35 15.67 35 35s-15.67 35-35 35z" fill="#1296db" p-id="1545"></path></svg>